# xmcd CD database file
#
# Track frame offsets:
#	150
#	20137
#	34172
#	57593
#	81389
#	91482
#	109644
#	120071
#	146187
#	162057
#	178484
#	198382
#	208303
#	226434
#	234715
#
# Disc length: 3319 seconds
#
# Revision: 0
# Processed by: cddbd v1.5.2PL0 Copyright (c) Steve Scherf et al.
# Submitted via: CDex 1.51
#
DISCID=db0cf50f
DTITLE=Lux Borea - A flute in the ice
DYEAR=2012
DGENRE=New Age
TTITLE0=O menschen van het quadt u keert
TTITLE1=Wie hooren wil een nieuwe liedt
TTITLE2=La grand bvallo du court
TTITLE3=Lied 17 o edel mensche wilstu dijn godt bekinnnen
TTITLE4=Ballo alemano
TTITLE5=Lied 7 Wildtu verblijden ghy wereldt fier
TTITLE6=Lied 31 ikck heb soo langhe ghestean
TTITLE7=Batali 
TTITLE8=Pols
TTITLE9=Lied 15 Ick soude soo gheerne by giode zijn
TTITLE10=Passemezzo - Boffons - Romanesco
TTITLE11=Fantasia
TTITLE12=Lied 9 Ick ben gheschotenalsoo diep
TTITLE13=Derde doen daphne d'over schoone maegt
TTITLE14=Lied 35 Die voghelkens van deser aerden
EXTD=YEAR: 2012
EXTT0=
EXTT1=
EXTT2=
EXTT3=
EXTT4=
EXTT5=
EXTT6=
EXTT7=
EXTT8=
EXTT9=
EXTT10=
EXTT11=
EXTT12=
EXTT13=
EXTT14=
PLAYORDER=
